<svg xmlns="http://www.w3.org/2000/svg" xmlns:xlink="http://www.w3.org/1999/xlink" viewBox="0 0 811.53 618.92"><defs><style>.cls-1{fill:none;}.cls-2{fill:#fff;}.cls-3{clip-path:url(#clip-path);}.cls-4{fill:#fe7dad;}.cls-5{fill:#00a9f8;}.cls-6{fill:#67dac1;}.cls-7{fill:#232021;}.cls-8{fill:#ffb32c;}</style><clipPath id="clip-path" transform="translate(56.58 97)"><rect class="cls-1" x="-31.13" y="-17.97" width="750" height="500"/></clipPath></defs><title>orage-circle-o</title><g id="BACKGROUND"><rect class="cls-2" x="56.58" y="97" width="750" height="500"/></g><g id="OBJECTS"><g class="cls-3"><path class="cls-4" d="M167,49.58a45.59,45.59,0,0,0-15.86,62.51c0,.08.09.15.13.22l78.36-46.64-.12-.23A45.61,45.61,0,0,0,167,49.58Z" transform="translate(56.58 97)"/><circle class="cls-5" cx="76.08" cy="285.06" r="44.9" transform="translate(-145.11 282.59) rotate(-55.35)"/><path class="cls-6" d="M90.05,243.82a6,6,0,0,1-1.11-.1L-7.83,225.56a6,6,0,0,1-4.55-3.91,6,6,0,0,1,1.11-5.9L52.84,141A6,6,0,0,1,63.05,143l32.66,92.88a6,6,0,0,1-5.66,8ZM4.6,215.68,80.94,230,55.18,156.73Z" transform="translate(56.58 97)"/><circle class="cls-5" cx="508.01" cy="-32.54" r="44.9" transform="translate(68.77 179.79) rotate(-9.43)"/><path class="cls-6" d="M533.48,49.76a6,6,0,0,1-6-6.16l2.61-98.42a6,6,0,0,1,3.14-5.12,6,6,0,0,1,6,.16L623.16-8.31A6,6,0,0,1,626-3a6,6,0,0,1-3.14,5.11L536.34,49A5.94,5.94,0,0,1,533.48,49.76Zm8.33-93.88-2.06,77.65L608-3.51Z" transform="translate(56.58 97)"/><path class="cls-7" d="M203.7,165.61a6,6,0,0,1-5.87-10l12.93-13.13a6,6,0,0,1,8.55,8.42L206.38,164A6,6,0,0,1,203.7,165.61Z" transform="translate(56.58 97)"/><path class="cls-7" d="M674.57,426.64a6,6,0,0,1-5.86-10l12.93-13.12a6,6,0,0,1,8.54,8.42l-12.92,13.13A6,6,0,0,1,674.57,426.64Z" transform="translate(56.58 97)"/><path class="cls-8" d="M82.44,185.56a6,6,0,0,1-3.5-.11l-17.45-5.9a6,6,0,0,1,3.84-11.37l17.45,5.9a6,6,0,0,1-.34,11.48Z" transform="translate(56.58 97)"/><path class="cls-6" d="M8.74,11.54a6,6,0,0,1-3.51-.11l-17.45-5.9A6,6,0,0,1-16-2.08,6,6,0,0,1-8.37-5.84L9.08.06a6,6,0,0,1-.34,11.48Z" transform="translate(56.58 97)"/><path class="cls-8" d="M686.06,481.52a6,6,0,0,1-3.5-.1l-17.45-5.91A6,6,0,1,1,669,464.15l17.44,5.9a6,6,0,0,1-.34,11.47Z" transform="translate(56.58 97)"/><path class="cls-6" d="M321.59,228.21a5.92,5.92,0,0,1-3-1.82l-12.3-13.71a6,6,0,0,1,8.94-8l12.29,13.71a6,6,0,0,1-5.94,9.83Z" transform="translate(56.58 97)"/><path class="cls-6" d="M706.49,236.4a6,6,0,0,1-3-1.82l-12.3-13.71a6,6,0,0,1,8.94-8l12.29,13.71a6,6,0,0,1-5.93,9.83Z" transform="translate(56.58 97)"/><path class="cls-6" d="M512.7,96.8a6,6,0,0,1-3-1.82L497.41,81.27a6,6,0,1,1,8.93-8L518.64,87a6,6,0,0,1-5.94,9.83Z" transform="translate(56.58 97)"/><path class="cls-4" d="M74.49,320.75A5.92,5.92,0,0,1,73,323.93L60.77,337.69a6,6,0,0,1-9-8L64.07,316a6,6,0,0,1,10.42,4.8Z" transform="translate(56.58 97)"/><path class="cls-5" d="M138.14,158.06A48.77,48.77,0,1,1,151,156.32,48.79,48.79,0,0,1,138.14,158.06Zm0-85.45a37.07,37.07,0,0,0-9.76,1.32,36.47,36.47,0,1,0,9.76-1.32Z" transform="translate(56.58 97)"/><path class="cls-4" d="M197.62,226c-5.25,1.44-9.52-.19-12.51-1.32s-4.14-1.5-6-.6a6,6,0,1,1-5.17-10.83c6.61-3.16,11.94-1.13,15.47.21,3,1.15,4.14,1.5,6,.6s2.32-2,3.32-5.06c1.17-3.59,2.93-9,9.55-12.17s11.94-1.14,15.47.21c3,1.14,4.15,1.49,6,.59s2.33-2,3.32-5.06c1.17-3.59,2.94-9,9.56-12.17s11.94-1.14,15.47.21c3,1.14,4.14,1.49,6,.59a6,6,0,0,1,5.17,10.83c-6.61,3.16-11.94,1.13-15.47-.21-3-1.15-4.14-1.5-6-.6s-2.32,2-3.32,5.07c-1.17,3.58-2.93,9-9.55,12.17s-11.95,1.13-15.47-.21c-3-1.15-4.15-1.5-6-.6s-2.32,2-3.31,5.07c-1.17,3.58-2.94,9-9.56,12.17A17.48,17.48,0,0,1,197.62,226Z" transform="translate(56.58 97)"/><path class="cls-6" d="M672.57,38.24c-5.25,1.43-9.52-.19-12.5-1.33s-4.15-1.5-6-.6a6,6,0,0,1-5.18-10.83c6.61-3.16,11.94-1.13,15.47.22,3,1.14,4.14,1.49,6,.59s2.32-2,3.32-5.06c1.17-3.59,2.93-9,9.55-12.17s11.94-1.13,15.47.21c3,1.15,4.15,1.5,6,.6s2.32-2,3.31-5.07c1.17-3.59,2.94-9,9.56-12.17s11.94-1.13,15.47.21c3,1.14,4.14,1.5,6,.6a6,6,0,0,1,8,2.82,6,6,0,0,1-2.83,8c-6.61,3.16-11.94,1.14-15.47-.21-3-1.14-4.14-1.5-6-.59s-2.32,2-3.32,5.06c-1.17,3.59-2.93,9-9.55,12.17s-11.94,1.14-15.47-.21c-3-1.14-4.15-1.49-6-.59s-2.32,2-3.31,5.06c-1.17,3.59-2.94,9-9.55,12.17A18.55,18.55,0,0,1,672.57,38.24Z" transform="translate(56.58 97)"/><path class="cls-4" d="M43.67,504.1c-3.85,3.84-8.37,4.54-11.52,5s-4.35.75-5.53,2.46a6,6,0,0,1-9.85-6.86c4.19-6,9.83-6.88,13.55-7.46,3.18-.49,4.35-.74,5.54-2.45s1-2.89.38-6c-.76-3.7-1.9-9.29,2.29-15.3s9.83-6.89,13.56-7.46c3.18-.49,4.34-.75,5.53-2.46s1-2.89.38-6c-.75-3.7-1.89-9.29,2.3-15.31s9.82-6.88,13.55-7.46c3.19-.49,4.35-.74,5.54-2.45a6,6,0,1,1,9.85,6.85c-4.19,6-9.83,6.89-13.56,7.46-3.18.49-4.34.75-5.53,2.46s-1,2.89-.39,6c.76,3.7,1.9,9.29-2.29,15.31s-9.83,6.88-13.56,7.46c-3.18.49-4.34.75-5.53,2.45s-1,2.89-.38,6c.75,3.7,1.89,9.29-2.3,15.31A17.18,17.18,0,0,1,43.67,504.1Z" transform="translate(56.58 97)"/><path class="cls-8" d="M325.4,341l-.56,0-63.56-6a6,6,0,0,1-5.41-6.54l6-63.56a6,6,0,0,1,6.53-5.41l63.56,6a6,6,0,0,1,5.41,6.53l-6,63.57a6,6,0,0,1-6,5.43Zm-57-17.4L320,328.49l4.86-51.62L273.24,272Z" transform="translate(56.58 97)"/><path class="cls-4" d="M64.62,127.7a5.93,5.93,0,1,1-8.1,2.22A5.94,5.94,0,0,1,64.62,127.7Z" transform="translate(56.58 97)"/><path class="cls-6" d="M208.81,283.84a5.93,5.93,0,1,1-8.09,2.22A5.93,5.93,0,0,1,208.81,283.84Z" transform="translate(56.58 97)"/><path class="cls-7" d="M31.93,219.67a5.94,5.94,0,1,1-8.09,2.22A5.93,5.93,0,0,1,31.93,219.67Z" transform="translate(56.58 97)"/><path class="cls-5" d="M151.43,183.14a5.93,5.93,0,1,1-8.1,2.22A5.94,5.94,0,0,1,151.43,183.14Z" transform="translate(56.58 97)"/><path class="cls-5" d="M693.39,347.41a5.94,5.94,0,1,1-8.09,2.22A5.94,5.94,0,0,1,693.39,347.41Z" transform="translate(56.58 97)"/><path class="cls-8" d="M232.34,96.55a5.93,5.93,0,1,1-8.1,2.22A5.94,5.94,0,0,1,232.34,96.55Z" transform="translate(56.58 97)"/><path class="cls-4" d="M692.2,109.13a45.6,45.6,0,0,0-64.45,2.18l-.17.19,66.62,62.27.18-.18A45.61,45.61,0,0,0,692.2,109.13Z" transform="translate(56.58 97)"/><circle class="cls-6" cx="273.4" cy="7.84" r="44.9" transform="translate(302.74 376.99) rotate(-85.93)"/><path class="cls-7" d="M280.79,13a6,6,0,0,1-6-5.42l-9.51-98a6,6,0,0,1,2.49-5.46,6,6,0,0,1,6-.58L363.39-55.7a6,6,0,0,1,3.49,4.88,6,6,0,0,1-2.48,5.46L284.28,11.88A6,6,0,0,1,280.79,13Zm-2.53-94.24,7.5,77.31L349-49.08Z" transform="translate(56.58 97)"/><path class="cls-7" d="M422.54,33a6,6,0,0,1,8-8.42l16.2,8.76A6,6,0,1,1,441,43.94l-16.2-8.76A6,6,0,0,1,422.54,33Z" transform="translate(56.58 97)"/><path class="cls-7" d="M11.46,133.28A6,6,0,0,1,15.86,144L1.21,155.17A6,6,0,0,1-7.2,154a6,6,0,0,1,1.14-8.41L8.58,134.46A6.08,6.08,0,0,1,11.46,133.28Z" transform="translate(56.58 97)"/><path class="cls-8" d="M521.51,151.47a5.94,5.94,0,0,1-.88-3.39l.81-18.4a6,6,0,1,1,12,.53l-.81,18.4a6,6,0,0,1-11.11,2.86Z" transform="translate(56.58 97)"/><path class="cls-5" d="M384.15,189.77a5.93,5.93,0,0,1,2.19-2.74l15.18-10.42a6,6,0,1,1,6.79,9.89l-15.19,10.43a6,6,0,0,1-9-7.16Z" transform="translate(56.58 97)"/><path class="cls-5" d="M-19.57,278.55a6,6,0,0,1,3.5.18l17.3,6.32a6,6,0,0,1,3.59,7.69,6,6,0,0,1-7.7,3.58L-20.18,290a6,6,0,0,1-3.58-7.69A6,6,0,0,1-19.57,278.55Z" transform="translate(56.58 97)"/><path class="cls-4" d="M654.13,345.42a6,6,0,0,1-3.47-.52L634,337a6,6,0,1,1,5.17-10.83l16.62,7.94a6,6,0,0,1-1.7,11.35Z" transform="translate(56.58 97)"/><path class="cls-5" d="M626.85,146.74a48.75,48.75,0,1,1,25.35-7.2h0A48.33,48.33,0,0,1,626.85,146.74Zm-.16-85.46a36.83,36.83,0,1,0,8.64,1A37,37,0,0,0,626.69,61.28Z" transform="translate(56.58 97)"/><path class="cls-4" d="M-7.79,449.77a48.8,48.8,0,0,1-11.47-1.37,48.39,48.39,0,0,1-30.16-21.92,48.77,48.77,0,0,1,16.09-67,48.78,48.78,0,0,1,67,16.09,48.77,48.77,0,0,1-16.09,67A48.36,48.36,0,0,1-7.79,449.77Zm-.15-85.44a36.49,36.49,0,0,0-19.12,5.4,36.75,36.75,0,0,0-12.12,50.48,36.42,36.42,0,0,0,22.73,16.52,36.44,36.44,0,0,0,27.75-4.39h0a36.46,36.46,0,0,0,16.52-22.73,36.48,36.48,0,0,0-4.39-27.75A36.75,36.75,0,0,0-7.94,364.33Z" transform="translate(56.58 97)"/><path class="cls-4" d="M362.82,44c-2.84-4.64-2.47-9.2-2.21-12.38s.28-4.4-1.1-5.95a6,6,0,1,1,9-8c4.87,5.47,4.41,11.15,4.1,14.91-.26,3.21-.28,4.4,1.1,5.95s2.57,1.67,5.79,1.78c3.77.12,9.47.31,14.35,5.78s4.42,11.16,4.11,14.92c-.27,3.21-.28,4.4,1.1,6s2.57,1.67,5.79,1.78c3.77.12,9.47.31,14.35,5.78s4.42,11.16,4.11,14.92c-.26,3.21-.28,4.4,1.1,6a6,6,0,1,1-8.95,8C410.54,98,411,92.27,411.31,88.51c.26-3.2.29-4.39-1.11-6s-2.57-1.67-5.78-1.78c-3.78-.12-9.48-.31-14.36-5.78s-4.41-11.16-4.1-14.92c.26-3.21.28-4.4-1.11-5.95s-2.57-1.67-5.78-1.78c-3.78-.12-9.47-.31-14.36-5.78A18.72,18.72,0,0,1,362.82,44Z" transform="translate(56.58 97)"/><path class="cls-5" d="M335.48,420.61c-2.85-4.64-2.47-9.19-2.21-12.37s.28-4.4-1.1-5.95a6,6,0,0,1,8.95-8c4.88,5.47,4.42,11.16,4.11,14.92-.27,3.21-.29,4.4,1.1,5.95s2.57,1.67,5.79,1.77c3.77.13,9.47.31,14.35,5.79s4.41,11.15,4.1,14.92c-.26,3.2-.28,4.4,1.11,6s2.57,1.67,5.79,1.78c3.77.12,9.47.31,14.35,5.78s4.42,11.16,4.11,14.92c-.27,3.21-.29,4.4,1.1,5.95a6,6,0,0,1-9,8c-4.87-5.47-4.41-11.16-4.1-14.92.26-3.21.28-4.4-1.11-6s-2.57-1.67-5.79-1.78c-3.77-.12-9.47-.31-14.35-5.79s-4.41-11.15-4.11-14.91c.27-3.21.28-4.4-1.1-6s-2.57-1.67-5.79-1.77c-3.77-.13-9.47-.31-14.35-5.79A16.85,16.85,0,0,1,335.48,420.61Z" transform="translate(56.58 97)"/><path class="cls-8" d="M307.82,170.73a6,6,0,0,1-5.89-4.88L290,103.13a6,6,0,0,1,4.77-7l62.71-12a6,6,0,0,1,7,4.77l11.95,62.71a6,6,0,0,1-4.77,7l-62.71,12A6.27,6.27,0,0,1,307.82,170.73Zm-4.93-63.95,9.7,50.93L363.52,148l-9.71-50.92Z" transform="translate(56.58 97)"/><path class="cls-4" d="M572.11,118.25a5.94,5.94,0,1,1-4.39-7.16A5.94,5.94,0,0,1,572.11,118.25Z" transform="translate(56.58 97)"/><path class="cls-6" d="M310.42,70.88A5.94,5.94,0,1,1,306,63.72,5.93,5.93,0,0,1,310.42,70.88Z" transform="translate(56.58 97)"/><path class="cls-7" d="M474.67,112.47a5.93,5.93,0,1,1-4.39-7.16A5.94,5.94,0,0,1,474.67,112.47Z" transform="translate(56.58 97)"/><path class="cls-7" d="M190.06,12.54a5.93,5.93,0,1,1-4.38-7.16A5.93,5.93,0,0,1,190.06,12.54Z" transform="translate(56.58 97)"/><circle class="cls-5" cx="385.38" cy="-13.67" r="5.94" transform="translate(74.15 199.17) rotate(-15.45)"/><path class="cls-8" d="M496.85,41.31a5.93,5.93,0,1,1-4.39-7.16A5.94,5.94,0,0,1,496.85,41.31Z" transform="translate(56.58 97)"/><path class="cls-8" d="M55,30a5.93,5.93,0,1,1-4.38-7.15A5.94,5.94,0,0,1,55,30Z" transform="translate(56.58 97)"/><path class="cls-6" d="M595.08,460.63a45.6,45.6,0,0,1-45.5-45.7v-.26l91.19.2c0,.08,0,.17,0,.26A45.61,45.61,0,0,1,595.08,460.63Z" transform="translate(56.58 97)"/><path class="cls-6" d="M5.25,94.7A45.6,45.6,0,0,1-13.81,33.09c0-.08.09-.15.13-.22L67,75.41l-.12.23A45.6,45.6,0,0,1,5.25,94.7Z" transform="translate(56.58 97)"/><path class="cls-5" d="M115.57,234.63a45.61,45.61,0,0,1-6.38-64.18l.17-.19L179.9,228l-.15.21A45.61,45.61,0,0,1,115.57,234.63Z" transform="translate(56.58 97)"/><path class="cls-8" d="M723.56,315.33A45.61,45.61,0,0,1,666,286.22c0-.08,0-.16-.08-.24l86.64-28.45.09.24A45.62,45.62,0,0,1,723.56,315.33Z" transform="translate(56.58 97)"/><circle class="cls-8" cx="428.2" cy="256.1" r="44.9" transform="translate(8.42 204.71) rotate(-13.58)"/><circle class="cls-8" cx="166.37" cy="477.02" r="44.9" transform="translate(-269.42 687.19) rotate(-83.72)"/><path class="cls-4" d="M465.56,366.65a5.83,5.83,0,0,1-1.93-.32l-93.24-31.61a6,6,0,0,1-2-10.2l74-64.94a6,6,0,0,1,9.84,3.34l19.24,96.56a6,6,0,0,1-5.88,7.17Zm-81.48-40,73.56,24.94-15.18-76.17Z" transform="translate(56.58 97)"/><path class="cls-6" d="M567.49,342.11a6,6,0,0,0,0,11.59l17.81,4.71a6,6,0,0,0,3.06-11.61l-17.81-4.7A6,6,0,0,0,567.49,342.11Z" transform="translate(56.58 97)"/><path class="cls-8" d="M453,386.75a6,6,0,0,0-2.95,1.88l-12,14a6,6,0,0,0,9.1,7.82l12-14a6,6,0,0,0-6.15-9.7Z" transform="translate(56.58 97)"/><path class="cls-6" d="M637,228.17a6,6,0,0,0-1.66,3.09l-3.59,18.07a6,6,0,0,0,11.77,2.34l3.59-18.07A6,6,0,0,0,637,228.17Z" transform="translate(56.58 97)"/><path class="cls-4" d="M57.94,150.06a6.05,6.05,0,0,0-2.88-2L37.5,142.49a6,6,0,0,0-3.64,11.43l17.56,5.59a6,6,0,0,0,6.52-9.45Z" transform="translate(56.58 97)"/><path class="cls-4" d="M474.49,186.48a6,6,0,0,0-.33-3.49l-7-17a6,6,0,1,0-11.1,4.55l7,17a6,6,0,0,0,11.43-1.06Z" transform="translate(56.58 97)"/><path class="cls-8" d="M539.67,472.68a48.84,48.84,0,1,1,13-1.75A49.08,49.08,0,0,1,539.67,472.68Zm.13-85.46a37,37,0,0,0-9.75,1.32,36.49,36.49,0,1,0,9.75-1.32Z" transform="translate(56.58 97)"/><path class="cls-7" d="M531.46,293.23c-5.24,1.44-8.09,5-10.08,7.51s-2.8,3.4-4.87,3.58a6,6,0,0,0,1.06,12c7.31-.65,10.86-5.12,13.2-8.07,2-2.52,2.81-3.4,4.88-3.58s3,.54,5.44,2.66c2.83,2.49,7.11,6.26,14.42,5.61s10.85-5.11,13.2-8.07c2-2.52,2.81-3.4,4.88-3.58s3,.54,5.44,2.66c2.83,2.49,7.12,6.26,14.42,5.61s10.86-5.11,13.21-8.07c2-2.52,2.8-3.4,4.88-3.58a6,6,0,0,0-1.07-12c-7.3.66-10.85,5.12-13.2,8.07-2,2.52-2.8,3.4-4.88,3.59s-3-.55-5.44-2.67c-2.84-2.49-7.12-6.26-14.42-5.6s-10.86,5.11-13.21,8.06c-2,2.52-2.81,3.4-4.88,3.59s-3-.55-5.43-2.67c-2.84-2.49-7.12-6.26-14.42-5.61A19,19,0,0,0,531.46,293.23Z" transform="translate(56.58 97)"/><path class="cls-6" d="M116.4,371.43c-5.25,1.44-8.09,5-10.08,7.51s-2.8,3.4-4.87,3.59a6,6,0,0,0,1.06,12c7.3-.65,10.86-5.11,13.2-8.07,2-2.51,2.81-3.4,4.88-3.58s3,.54,5.43,2.67c2.84,2.49,7.12,6.25,14.43,5.6S151.3,386,153.65,383c2-2.52,2.81-3.41,4.88-3.59s3,.54,5.44,2.67c2.83,2.49,7.12,6.25,14.42,5.6s10.86-5.11,13.21-8.06c2-2.52,2.8-3.4,4.88-3.59a6,6,0,0,0-1.07-11.95c-7.3.65-10.85,5.11-13.2,8.06-2,2.52-2.81,3.41-4.89,3.59s-3-.54-5.43-2.67c-2.84-2.49-7.12-6.25-14.43-5.6s-10.85,5.11-13.2,8.06c-2,2.52-2.81,3.4-4.88,3.59s-3-.54-5.43-2.67c-2.84-2.49-7.12-6.25-14.43-5.6A18.07,18.07,0,0,0,116.4,371.43Z" transform="translate(56.58 97)"/><path class="cls-6" d="M559.88,262.77a5.84,5.84,0,0,1-.93-.08A6,6,0,0,1,555,260.3l-37.54-51.64a6,6,0,0,1,1.32-8.38l51.63-37.54a6,6,0,0,1,8.38,1.32l37.55,51.63a6,6,0,0,1-1.32,8.38l-51.64,37.55A6,6,0,0,1,559.88,262.77Zm-29.16-56.31,30.49,41.93,41.93-30.49L572.65,176Z" transform="translate(56.58 97)"/><path class="cls-6" d="M102,36.44A6,6,0,0,1,97.1,34L59.56-17.67A6,6,0,0,1,60.88-26L112.51-63.6a6,6,0,0,1,8.39,1.33l37.54,51.63a6,6,0,0,1-1.32,8.38L105.48,35.29A6,6,0,0,1,102,36.44ZM72.79-19.87l30.49,41.92L145.21-8.44,114.72-50.36Z" transform="translate(56.58 97)"/><path class="cls-7" d="M280.34,476.82a6,6,0,0,1-3.08-.85l-54.81-32.74a6,6,0,0,1-2.07-8.23l32.75-54.81a6,6,0,0,1,8.22-2.07l54.81,32.75a6,6,0,0,1,2.07,8.23l-32.74,54.8a6,6,0,0,1-5.15,2.92ZM233.76,436l44.5,26.59,26.59-44.5-44.5-26.59Z" transform="translate(56.58 97)"/><path class="cls-4" d="M467.15,445.61a5.94,5.94,0,1,0-8.1,2.22A5.93,5.93,0,0,0,467.15,445.61Z" transform="translate(56.58 97)"/><path class="cls-4" d="M330.87,341.61a5.94,5.94,0,1,0-8.1,2.22A5.93,5.93,0,0,0,330.87,341.61Z" transform="translate(56.58 97)"/><path class="cls-4" d="M-15.48,206a5.92,5.92,0,0,0-2.22-8.09,5.93,5.93,0,0,0-8.09,2.22,5.93,5.93,0,0,0,2.22,8.09A5.92,5.92,0,0,0-15.48,206Z" transform="translate(56.58 97)"/><path class="cls-6" d="M511.64,237.79a5.94,5.94,0,1,0-8.1,2.21A5.94,5.94,0,0,0,511.64,237.79Z" transform="translate(56.58 97)"/><path class="cls-7" d="M392.15,383.14a5.93,5.93,0,1,0-8.09,2.21A5.94,5.94,0,0,0,392.15,383.14Z" transform="translate(56.58 97)"/><path class="cls-5" d="M513.58,353.67a5.93,5.93,0,1,0-8.09,2.22A5.93,5.93,0,0,0,513.58,353.67Z" transform="translate(56.58 97)"/><path class="cls-8" d="M627.33,386.94a5.94,5.94,0,1,0-8.1,2.22A5.94,5.94,0,0,0,627.33,386.94Z" transform="translate(56.58 97)"/><path class="cls-8" d="M630.23,174.11a5.93,5.93,0,1,0-8.09,2.22A5.92,5.92,0,0,0,630.23,174.11Z" transform="translate(56.58 97)"/></g></g></svg>